<svg version="1.1" xmlns="http://www.w3.org/2000/svg" viewBox="0 0 501.6436003677033 387.8898397474524" width="80" height="80">
  <!-- svg-source:excalidraw -->
  
  <defs>
    <style>
      @font-face {
        font-family: "Virgil";
        src: url("https://excalidraw.com/Virgil.woff2");
      }
      @font-face {
        font-family: "Cascadia";
        src: url("https://excalidraw.com/Cascadia.woff2");
      }
    </style>
  </defs>
  <rect x="0" y="0" width="501.6436003677033" height="387.8898397474524" fill="transparent"></rect><g stroke-linecap="round" transform="translate(135.4003057585919 21.195905030485108) rotate(0 111.91075193417782 165.10992725404392)"><path d="M55.96 0 M55.96 0 C87.61 0, 119.27 0, 167.87 0 M55.96 0 C95.65 0, 135.35 0, 167.87 0 M167.87 0 C205.17 0, 223.82 18.65, 223.82 55.96 M167.87 0 C205.17 0, 223.82 18.65, 223.82 55.96 M223.82 55.96 C223.82 115.06, 223.82 174.17, 223.82 274.26 M223.82 55.96 C223.82 103.54, 223.82 151.13, 223.82 274.26 M223.82 274.26 C223.82 311.57, 205.17 330.22, 167.87 330.22 M223.82 274.26 C223.82 311.57, 205.17 330.22, 167.87 330.22 M167.87 330.22 C124.48 330.22, 81.1 330.22, 55.96 330.22 M167.87 330.22 C136.35 330.22, 104.83 330.22, 55.96 330.22 M55.96 330.22 C18.65 330.22, 0 311.57, 0 274.26 M55.96 330.22 C18.65 330.22, 0 311.57, 0 274.26 M0 274.26 C0 199.73, 0 125.19, 0 55.96 M0 274.26 C0 198.43, 0 122.59, 0 55.96 M0 55.96 C0 18.65, 18.65 0, 55.96 0 M0 55.96 C0 18.65, 18.65 0, 55.96 0" stroke="#000000" stroke-width="1" fill="none"></path></g><g stroke-linecap="round" transform="translate(167.46569928264284 50.664470933189705) rotate(0 81.89394364999384 118.35597212441695)"><path d="M40.95 0 M40.95 0 C63.4 0, 85.85 0, 122.84 0 M40.95 0 C68.31 0, 95.68 0, 122.84 0 M122.84 0 C150.14 0, 163.79 13.65, 163.79 40.95 M122.84 0 C150.14 0, 163.79 13.65, 163.79 40.95 M163.79 40.95 C163.79 92.09, 163.79 143.23, 163.79 195.76 M163.79 40.95 C163.79 75.78, 163.79 110.6, 163.79 195.76 M163.79 195.76 C163.79 223.06, 150.14 236.71, 122.84 236.71 M163.79 195.76 C163.79 223.06, 150.14 236.71, 122.84 236.71 M122.84 236.71 C94.09 236.71, 65.33 236.71, 40.95 236.71 M122.84 236.71 C92.8 236.71, 62.76 236.71, 40.95 236.71 M40.95 236.71 C13.65 236.71, 0 223.06, 0 195.76 M40.95 236.71 C13.65 236.71, 0 223.06, 0 195.76 M0 195.76 C0 136.75, 0 77.74, 0 40.95 M0 195.76 C0 159.03, 0 122.29, 0 40.95 M0 40.95 C0 13.65, 13.65 0, 40.95 0 M0 40.95 C0 13.65, 13.65 0, 40.95 0" stroke="#000000" stroke-width="1" fill="none"></path></g><g stroke-linecap="round"><g transform="translate(70.43866952432631 348.46258883534193) rotate(0 -10.029887500018532 -169.23129441767097)"><path d="M0 0 C-6.86 -10.54, -31.47 -42.88, -41.18 -63.25 C-50.89 -83.62, -55.43 -101.99, -58.26 -122.24 C-61.1 -142.48, -61.26 -164.17, -58.18 -184.72 C-55.1 -205.28, -49.32 -226.09, -39.8 -245.56 C-30.28 -265.04, -14.43 -286.11, -1.07 -301.59 C12.3 -317.07, 33.47 -332.32, 40.38 -338.46 M0 0 C-6.86 -10.54, -31.47 -42.88, -41.18 -63.25 C-50.89 -83.62, -55.43 -101.99, -58.26 -122.24 C-61.1 -142.48, -61.26 -164.17, -58.18 -184.72 C-55.1 -205.28, -49.32 -226.09, -39.8 -245.56 C-30.28 -265.04, -14.43 -286.11, -1.07 -301.59 C12.3 -317.07, 33.47 -332.32, 40.38 -338.46" stroke="#000000" stroke-width="4" fill="none"></path></g><g transform="translate(70.43866952432631 348.46258883534193) rotate(0 -10.029887500018532 -169.23129441767097)"><path d="M26.21 -314.62 C31.65 -323.77, 37.09 -332.93, 40.38 -338.46 M26.21 -314.62 C31.07 -322.8, 35.93 -330.97, 40.38 -338.46" stroke="#000000" stroke-width="4" fill="none"></path></g><g transform="translate(70.43866952432631 348.46258883534193) rotate(0 -10.029887500018532 -169.23129441767097)"><path d="M14.2 -329.3 C24.25 -332.82, 34.3 -336.34, 40.38 -338.46 M14.2 -329.3 C23.18 -332.44, 32.16 -335.59, 40.38 -338.46" stroke="#000000" stroke-width="4" fill="none"></path></g></g><g stroke-linecap="round"><g transform="translate(451.26470584341416 377.8898397474524) rotate(180 -10.029887500018546 -169.23129441767097)"><path d="M0 0 C-6.86 -10.54, -31.47 -42.88, -41.18 -63.25 C-50.89 -83.62, -55.43 -101.99, -58.26 -122.24 C-61.1 -142.48, -61.26 -164.17, -58.18 -184.72 C-55.1 -205.28, -49.32 -226.09, -39.8 -245.56 C-30.28 -265.04, -14.43 -286.11, -1.07 -301.59 C12.3 -317.07, 33.47 -332.32, 40.38 -338.46 M0 0 C-6.86 -10.54, -31.47 -42.88, -41.18 -63.25 C-50.89 -83.62, -55.43 -101.99, -58.26 -122.24 C-61.1 -142.48, -61.26 -164.17, -58.18 -184.72 C-55.1 -205.28, -49.32 -226.09, -39.8 -245.56 C-30.28 -265.04, -14.43 -286.11, -1.07 -301.59 C12.3 -317.07, 33.47 -332.32, 40.38 -338.46" stroke="#000000" stroke-width="4" fill="none"></path></g><g transform="translate(451.26470584341416 377.8898397474524) rotate(180 -10.029887500018546 -169.23129441767097)"><path d="M26.21 -314.62 C30.04 -321.07, 33.87 -327.51, 40.38 -338.46 M26.21 -314.62 C31.34 -323.25, 36.47 -331.88, 40.38 -338.46" stroke="#000000" stroke-width="4" fill="none"></path></g><g transform="translate(451.26470584341416 377.8898397474524) rotate(180 -10.029887500018546 -169.23129441767097)"><path d="M14.2 -329.3 C21.28 -331.78, 28.36 -334.26, 40.38 -338.46 M14.2 -329.3 C23.68 -332.62, 33.15 -335.93, 40.38 -338.46" stroke="#000000" stroke-width="4" fill="none"></path></g></g></svg>